<svg width="135" height="153" viewBox="0 0 135 153" fill="none" xmlns="http://www.w3.org/2000/svg">
<path d="M12.252 137.411L0 0H134.625L122.357 137.389L67.2307 152.673L12.252 137.411Z" fill="#E44F26"/>
<path d="M67.3123 140.994L111.86 128.644L122.34 11.238H67.3123V140.994Z" fill="#F1662A"/>
<path d="M67.3124 62.198H45.0112L43.4736 44.9405H67.3124V28.0864H67.2525H25.0547L25.4582 32.6121L29.5967 79.052H67.3124V62.198Z" fill="#EBEBEB"/>
<path d="M67.3121 105.966L67.2358 105.988L48.4679 100.922L47.2683 87.4814H38.1461H30.3489L32.7099 113.938L67.2358 123.523L67.3121 123.501V105.966Z" fill="#EBEBEB"/>
<path d="M67.2524 62.1979V79.0519H88.0051L86.0531 100.911L67.2524 105.982V123.518L101.806 113.938L102.056 111.091L106.015 66.7235L106.429 62.1979H101.887H67.2524Z" fill="white"/>
<path d="M67.2524 28.0864V38.5554V44.9023V44.9405H107.907H107.962L108.3 41.1563L109.069 32.6121L109.472 28.0864H67.2524Z" fill="white"/>
</svg>
