<svg width="135" height="153" viewBox="0 0 135 153" fill="none" xmlns="http://www.w3.org/2000/svg">
<path d="M12.2476 137.422L0 0H134.625L122.361 137.401L67.2307 152.686L12.2476 137.422Z" fill="#1572B6"/>
<path d="M67.3125 141.005L111.864 128.654L122.345 11.2389H67.3125V141.005Z" fill="#33A9DC"/>
<path d="M67.3125 61.0254H89.6155L91.1533 43.7665H67.3125V26.9111H67.3725H109.574L109.17 31.4317L105.031 77.8808H67.3125V61.0254Z" fill="white"/>
<path d="M67.416 104.797L67.3396 104.819L48.5702 99.7474L47.3705 86.3057H38.2476H30.4497L32.8109 112.769L67.3342 122.356L67.416 122.334V104.797Z" fill="#EBEBEB"/>
<path d="M88.1817 77.1661L86.1531 99.7363L67.3564 104.808V122.345L101.907 112.769L102.163 109.923L105.092 77.1661H88.1817Z" fill="white"/>
<path d="M67.3729 26.9111V37.381V43.7229V43.7665H26.7149H26.6604L26.3223 39.9767L25.5534 31.4317L25.1499 26.9111H67.3729Z" fill="#EBEBEB"/>
<path d="M67.3122 61.0254V71.4953V77.8372V77.8808H48.8318H48.7773L48.4392 74.0909L47.6757 65.546L47.2722 61.0254H67.3122Z" fill="#EBEBEB"/>
</svg>
