<svg width="135" height="135" viewBox="0 0 135 135" fill="none" xmlns="http://www.w3.org/2000/svg">
<path d="M0 0H134.625V134.625H0V0Z" fill="#F5DE19"/>
<path d="M90.4346 105.176C91.5816 107.506 93.3637 109.464 95.5755 110.825C97.7872 112.186 100.339 112.895 102.935 112.869C108.176 112.869 111.527 110.248 111.527 106.618C111.527 102.291 108.085 100.743 102.315 98.2187L99.1515 96.8628C90.0163 92.9731 83.9582 88.1026 83.9582 77.8038C83.9582 68.3175 91.1702 61.0911 102.484 61.0911C106.146 60.8266 109.805 61.6462 113.004 63.4478C116.204 65.2493 118.802 67.953 120.475 71.2216L110.585 77.5442C109.941 75.9235 108.819 74.5369 107.369 73.5683C105.919 72.5997 104.208 72.0948 102.464 72.1207C101.703 72.0445 100.935 72.1277 100.208 72.3649C99.4813 72.602 98.8118 72.988 98.2423 73.4983C97.6728 74.0085 97.2159 74.6318 96.9006 75.3284C96.5853 76.0249 96.4185 76.7796 96.411 77.5442C96.411 81.3377 98.7621 82.8763 104.19 85.237L107.354 86.5929C118.105 91.2038 124.182 95.9012 124.182 106.464C124.182 117.855 115.234 124.096 103.219 124.096C98.5376 124.394 93.8697 123.331 89.7788 121.035C85.688 118.739 82.3489 115.309 80.1646 111.157L90.4346 105.176ZM45.7439 106.272C47.7296 109.796 49.5374 112.777 53.8839 112.777C58.038 112.777 60.6632 111.152 60.6632 104.83V61.8123H73.3132V104.998C73.3132 118.095 65.6203 124.057 54.4224 124.057C50.4642 124.273 46.5331 123.287 43.146 121.227C39.7589 119.168 37.0743 116.132 35.4451 112.518L45.7439 106.272Z" fill="black"/>
</svg>
