<svg width="135" height="135" viewBox="0 0 135 135" fill="none" xmlns="http://www.w3.org/2000/svg">
<path d="M128.317 0H6.30814C2.82425 0 0 2.82425 0 6.30814V128.317C0 131.801 2.82425 134.625 6.30814 134.625H128.317C131.801 134.625 134.625 131.801 134.625 128.317V6.30814C134.625 2.82425 131.801 0 128.317 0Z" fill="#3178C6"/>
<path fill-rule="evenodd" clip-rule="evenodd" d="M78.1066 104.618V119.369C80.7868 120.692 83.6431 121.623 86.588 122.134C89.9911 122.762 93.4454 123.071 96.906 123.057C100.279 123.073 103.644 122.733 106.945 122.042C109.909 121.443 112.737 120.302 115.287 118.677C117.654 117.149 119.605 115.057 120.965 112.59C123.401 107.48 123.723 101.616 121.86 96.2712C121.074 94.2724 119.902 92.4476 118.412 90.9006C116.813 89.2556 114.996 87.8369 113.013 86.6839C110.729 85.3465 108.357 84.1673 105.911 83.1549C103.988 82.3567 102.257 81.581 100.719 80.8278C99.3522 80.1735 98.0444 79.403 96.8098 78.5247C95.8429 77.8468 95.003 77.0037 94.3289 76.0341C93.7464 75.1538 93.4431 74.1182 93.4586 73.0628C93.4458 72.0914 93.7165 71.1373 94.2375 70.3174C94.8035 69.4593 95.5584 68.7422 96.4444 68.2211C97.5275 67.5834 98.7061 67.124 99.9351 66.8604C101.444 66.5252 102.986 66.3639 104.532 66.3796C105.831 66.3841 107.129 66.4773 108.416 66.6585C109.806 66.8464 111.182 67.1308 112.532 67.5095C113.906 67.8902 115.249 68.3724 116.552 68.9519C117.815 69.5152 119.024 70.1945 120.162 70.9809V57.2155C117.793 56.3189 115.335 55.6743 112.83 55.2923C109.805 54.8522 106.751 54.6448 103.695 54.6721C100.354 54.6541 97.0226 55.0333 93.7712 55.8019C90.8322 56.4735 88.0377 57.6672 85.5206 59.3262C83.1823 60.8839 81.2516 62.9795 79.8904 65.4372C78.4478 68.1666 77.734 71.2221 77.8181 74.3081C77.7116 78.3891 79.0558 82.3756 81.6116 85.5589C84.7474 89.0884 88.7015 91.7943 93.1269 93.4392C95.1463 94.2726 97.0294 95.0884 98.7763 95.8865C100.352 96.5879 101.867 97.4193 103.305 98.3723C104.465 99.1268 105.484 100.079 106.315 101.185C107.046 102.188 107.434 103.401 107.421 104.642C107.428 105.572 107.189 106.488 106.729 107.296C106.218 108.165 105.499 108.893 104.637 109.416C103.559 110.074 102.38 110.548 101.147 110.82C99.5405 111.179 97.8978 111.349 96.2521 111.325C93.0226 111.319 89.8188 110.75 86.7851 109.642C83.6157 108.499 80.6765 106.797 78.1066 104.618ZM53.326 67.8941H72.5581V55.7442H18.9341V67.8941H38.0797V122.004H53.326V67.8941Z" fill="white"/>
</svg>
