<svg width="135" height="121" viewBox="0 0 135 121" fill="none" xmlns="http://www.w3.org/2000/svg">
<path d="M67.4999 71.9958C74.1569 71.9958 79.5534 66.5992 79.5534 59.9422C79.5534 53.2852 74.1569 47.8887 67.4999 47.8887C60.8429 47.8887 55.4463 53.2852 55.4463 59.9422C55.4463 66.5992 60.8429 71.9958 67.4999 71.9958Z" fill="#00D8FF"/>
<path d="M67.5 87.5792C53.0123 87.9296 38.5608 85.9767 24.6857 81.7934C18.2762 79.7616 12.2982 76.5609 7.05375 72.3531C5.05252 70.9156 3.38595 69.0622 2.1684 66.92C0.950846 64.7779 0.211129 62.3977 0 59.9427C0 51.9729 8.75571 44.1622 23.4225 39.0515C37.6685 34.5229 52.5532 32.3282 67.5 32.5522C82.2473 32.3461 96.9326 34.5012 110.999 38.9358C117.172 40.9037 122.947 43.9497 128.057 47.9325C130.024 49.303 131.666 51.0892 132.866 53.1648C134.065 55.2403 134.794 57.5542 135 59.9427C135 68.2259 125.213 76.62 109.446 81.8368C95.84 85.8838 81.6935 87.8204 67.5 87.5792ZM67.5 38.3186C53.2002 38.1275 38.9611 40.2139 25.3173 44.4997C11.8173 49.2102 5.76643 55.6517 5.76643 59.9283C5.76643 64.4025 12.2705 71.437 26.5516 76.3211C39.8254 80.3029 53.6462 82.1564 67.5 81.8127C81.0791 82.0556 94.6154 80.2182 107.638 76.3645C122.464 71.4515 129.214 64.4074 129.214 59.9427C128.971 58.4106 128.413 56.9456 127.575 55.6402C126.736 54.3348 125.637 53.2174 124.345 52.3586C119.773 48.8252 114.614 46.1257 109.104 44.384C95.6476 40.1592 81.6026 38.1116 67.5 38.3186Z" fill="#00D8FF"/>
<path d="M40.1147 120.061C37.8655 120.112 35.6428 119.567 33.6732 118.479C26.769 114.497 24.3775 103.012 27.2752 87.7523C30.4701 73.1486 36.0059 59.1578 43.6681 46.3217C50.8555 33.4442 60.057 21.7995 70.9236 11.8292C75.712 7.46441 81.236 3.98256 87.2393 1.54512C89.4107 0.527505 91.7794 0 94.1774 0C96.5754 0 98.944 0.527505 101.115 1.54512C108.294 5.6819 110.671 18.3526 107.321 34.6153C104.027 48.4266 98.6351 61.6512 91.3327 73.828C84.3982 86.5534 75.4865 98.0967 64.9306 108.026C59.9683 112.562 54.2093 116.141 47.9447 118.58C45.4367 119.511 42.7894 120.012 40.1147 120.061ZM48.6631 49.1857C41.3543 61.4771 36.0486 74.8535 32.9452 88.813C30.279 102.867 32.8391 111.319 36.5613 113.47C40.4184 115.702 49.7816 113.585 61.1506 103.653C71.2275 94.1404 79.7335 83.0909 86.3522 70.9158C93.3478 59.2746 98.52 46.631 101.689 33.4244C104.842 18.1164 102.118 8.74351 98.2515 6.51601C96.8022 5.96071 95.2535 5.71213 93.7032 5.78599C92.153 5.85986 90.6349 6.25455 89.245 6.94512C83.9013 9.15018 78.9886 12.2807 74.7325 16.1926C64.3504 25.7428 55.561 36.8907 48.6968 49.2146L48.6631 49.1857Z" fill="#00D8FF"/>
<path d="M94.8718 120.123C88.3388 120.123 80.0411 116.17 71.4011 108.74C60.3441 98.6791 50.9871 86.896 43.6924 73.8474C36.1262 61.188 30.6343 47.3997 27.4249 33.0051C26.0329 26.6721 25.775 20.1424 26.6631 13.7193C26.8684 11.3366 27.5939 9.02796 28.7885 6.95614C29.9831 4.88433 31.6177 3.09982 33.577 1.72845C40.7465 -2.4228 52.9109 1.84416 65.3261 12.8659C75.6468 22.6158 84.4112 33.8908 91.3136 46.2977C98.875 58.6615 104.425 72.148 107.755 86.2529C109.206 92.8183 109.43 99.5957 108.415 106.243C108.174 108.694 107.405 111.064 106.162 113.19C104.918 115.316 103.23 117.149 101.212 118.561C99.2746 119.635 97.0863 120.174 94.8718 120.123ZM48.6825 70.9449C55.6805 83.4152 64.6187 94.6921 75.1618 104.353C86.0052 113.682 94.6066 115.688 98.3047 113.513C102.162 111.271 105.006 102.12 102.075 87.3136C98.8634 73.8471 93.5405 60.9737 86.3041 49.1713C79.7172 37.2967 71.3516 26.5003 61.4979 17.157C49.8107 6.78131 40.3318 4.4622 36.4699 6.69934C35.2662 7.67752 34.2784 8.89465 33.5688 10.2739C32.8593 11.6531 32.4434 13.1645 32.3475 14.7126C31.5809 20.4408 31.8307 26.2594 33.0852 31.9009C36.1724 45.6668 41.4395 58.8509 48.6873 70.9545L48.6825 70.9449Z" fill="#00D8FF"/>
</svg>
