<svg width="135" height="152" viewBox="0 0 135 152" fill="none" xmlns="http://www.w3.org/2000/svg">
<path d="M67.3125 151.81C65.2645 151.811 63.2524 151.272 61.4786 150.249L42.9141 139.259C40.1435 137.708 41.4936 137.16 42.4099 136.84C45.3565 135.93 48.1779 134.655 50.8084 133.045C51.0285 132.943 51.2711 132.899 51.513 132.917C51.7549 132.935 51.9883 133.015 52.1909 133.148L66.4559 141.622C66.7215 141.763 67.0174 141.836 67.3179 141.836C67.6184 141.836 67.9144 141.763 68.18 141.622L123.808 109.514C124.069 109.358 124.284 109.137 124.433 108.873C124.582 108.609 124.66 108.31 124.66 108.007V43.7795C124.66 43.4712 124.581 43.1681 124.43 42.8993C124.279 42.6306 124.061 42.4053 123.798 42.2451L68.1692 10.1639C67.9069 10.0162 67.6109 9.93854 67.3098 9.93854C67.0087 9.93854 66.7128 10.0162 66.4504 10.1639L10.8546 42.2559C10.5894 42.4128 10.3692 42.6354 10.2153 42.9023C10.0615 43.1693 9.97912 43.4714 9.97627 43.7795V107.98C9.97703 108.283 10.0583 108.58 10.2117 108.841C10.365 109.102 10.5851 109.317 10.8492 109.465L26.1063 118.271C34.3747 122.402 39.4387 117.533 39.4387 112.643V49.2556C39.4387 49.042 39.4808 48.8304 39.5625 48.6331C39.6443 48.4358 39.7641 48.2564 39.9151 48.1054C40.0661 47.9544 40.2455 47.8346 40.4428 47.7528C40.6401 47.6711 40.8517 47.629 41.0653 47.629H48.1137C48.5451 47.629 48.9588 47.8004 49.2638 48.1054C49.5689 48.4104 49.7402 48.8242 49.7402 49.2556V112.648C49.7402 123.682 43.7328 129.998 33.2686 129.998C28.7542 130.077 24.3107 128.869 20.4567 126.517L5.83397 118.13C4.05878 117.096 2.58582 115.614 1.56212 113.833C0.538421 112.052 -0.000196524 110.034 3.85593e-05 107.98V43.7795C-0.00523792 41.722 0.531101 39.6994 1.55516 37.915C2.57922 36.1305 4.05492 34.6469 5.83397 33.6135L61.4677 1.49433C63.2598 0.513877 65.2698 0 67.3125 0C69.3553 0 71.3652 0.513877 73.1573 1.49433L128.786 33.6135C130.561 34.6452 132.034 36.1244 133.059 37.9035C134.083 39.6826 134.623 41.6993 134.625 43.7524V107.98C134.622 110.034 134.081 112.052 133.057 113.832C132.033 115.613 130.56 117.094 128.786 118.13L73.1573 150.249C71.3802 151.274 69.3642 151.813 67.3125 151.81Z" fill="#83CD29"/>
<path d="M56.7615 86.493C56.7615 86.0617 56.9328 85.6479 57.2379 85.3429C57.5429 85.0379 57.9566 84.8665 58.388 84.8665H65.5829C65.9673 84.8677 66.3388 85.0051 66.6316 85.2542C66.9244 85.5033 67.1195 85.8481 67.1823 86.2274C68.2667 93.5523 71.5198 97.2446 86.2293 97.2446C97.946 97.2446 102.94 94.5933 102.94 88.3744C102.94 84.7906 101.524 82.1284 83.3124 80.3447C68.0878 78.8374 58.6754 75.465 58.6754 63.2983C58.6754 52.075 68.1366 45.379 83.9955 45.379C101.817 45.379 110.639 51.5654 111.755 64.8381C111.773 65.0597 111.744 65.2824 111.672 65.4926C111.599 65.7027 111.485 65.8958 111.335 66.0599C111.185 66.224 111.003 66.3556 110.8 66.4467C110.597 66.5378 110.378 66.5863 110.156 66.5894H102.912C102.549 66.5843 102.198 66.4576 101.915 66.2297C101.632 66.0017 101.433 65.6855 101.351 65.3315C99.6213 57.627 95.3869 55.1655 84.0009 55.1655C71.2053 55.1655 69.7197 59.6223 69.7197 62.9621C69.7197 67.0069 71.4764 68.1888 88.7505 70.4714C105.846 72.7324 113.968 75.9313 113.968 87.9461C113.968 100.069 103.861 107.009 86.2347 107.009C61.8635 107.042 56.7615 95.8675 56.7615 86.493Z" fill="#83CD29"/>
</svg>
