<svg width="522" height="228" viewBox="0 0 522 228" fill="none" xmlns="http://www.w3.org/2000/svg">
<ellipse cx="261" cy="195" rx="261" ry="30" fill="#0F0F0F"/>
<mask id="path-2-inside-1_415_30" fill="white">
<path d="M177 140.5C177 150.003 174.292 159.313 169.187 167.361C164.083 175.408 156.788 181.866 148.143 185.992C139.498 190.118 129.852 191.745 120.314 190.685C110.777 189.626 101.735 185.923 94.2279 180.003C86.7206 174.083 81.0527 166.185 77.8756 157.218C74.6985 148.251 74.1412 138.578 76.2676 129.311C78.3941 120.044 83.1181 111.559 89.8966 104.832C96.6751 98.1044 105.233 93.4074 114.587 91.2808L126 140.5H177Z"/>
</mask>
<path d="M177 140.5C177 150.003 174.292 159.313 169.187 167.361C164.083 175.408 156.788 181.866 148.143 185.992C139.498 190.118 129.852 191.745 120.314 190.685C110.777 189.626 101.735 185.923 94.2279 180.003C86.7206 174.083 81.0527 166.185 77.8756 157.218C74.6985 148.251 74.1412 138.578 76.2676 129.311C78.3941 120.044 83.1181 111.559 89.8966 104.832C96.6751 98.1044 105.233 93.4074 114.587 91.2808L126 140.5H177Z" stroke="#D09B26" stroke-width="30" mask="url(#path-2-inside-1_415_30)"/>
<mask id="path-3-inside-2_415_30" fill="white">
<path d="M78.7833 77.1436C79.1812 67.6489 82.2765 58.4601 87.7136 50.6336C93.1508 42.807 100.709 36.6603 109.52 32.8998C118.33 29.1393 128.035 27.9178 137.52 29.3755C147.005 30.8333 155.884 34.9112 163.137 41.1406C170.389 47.3699 175.722 55.4979 178.521 64.5903C181.32 73.6828 181.471 83.3706 178.959 92.5403C176.446 101.71 171.371 109.99 164.317 116.427C157.263 122.865 148.516 127.199 139.081 128.933L129.739 79.2787L78.7833 77.1436Z"/>
</mask>
<path d="M78.7833 77.1436C79.1812 67.6489 82.2765 58.4601 87.7136 50.6336C93.1508 42.807 100.709 36.6603 109.52 32.8998C118.33 29.1393 128.035 27.9178 137.52 29.3755C147.005 30.8333 155.884 34.9112 163.137 41.1406C170.389 47.3699 175.722 55.4979 178.521 64.5903C181.32 73.6828 181.471 83.3706 178.959 92.5403C176.446 101.71 171.371 109.99 164.317 116.427C157.263 122.865 148.516 127.199 139.081 128.933L129.739 79.2787L78.7833 77.1436Z" stroke="#D74B56" stroke-width="30" mask="url(#path-3-inside-2_415_30)"/>
<mask id="path-4-inside-3_415_30" fill="white">
<path d="M274.507 171.136C266.501 176.257 257.199 178.993 247.67 179.03C238.14 179.067 228.769 176.402 220.635 171.343C212.5 166.284 205.932 159.035 201.685 150.43C197.437 141.825 195.684 132.213 196.625 122.699C197.567 113.184 201.165 104.154 207.007 96.6452C212.849 89.1365 220.697 83.4544 229.649 80.2518C238.601 77.0493 248.294 76.4564 257.614 78.5412C266.934 80.626 275.502 85.3039 282.334 92.0373L254.779 120.238C253.278 118.759 251.396 117.732 249.349 117.274C247.302 116.816 245.174 116.946 243.207 117.65C241.241 118.353 239.518 119.601 238.235 121.25C236.952 122.899 236.161 124.883 235.955 126.972C235.748 129.062 236.133 131.173 237.066 133.063C237.999 134.953 239.441 136.545 241.228 137.656C243.014 138.767 245.072 139.352 247.165 139.344C249.258 139.336 251.301 138.735 253.059 137.611L274.507 171.136Z"/>
</mask>
<path d="M274.507 171.136C266.501 176.257 257.199 178.993 247.67 179.03C238.14 179.067 228.769 176.402 220.635 171.343C212.5 166.284 205.932 159.035 201.685 150.43C197.437 141.825 195.684 132.213 196.625 122.699C197.567 113.184 201.165 104.154 207.007 96.6452C212.849 89.1365 220.697 83.4544 229.649 80.2518C238.601 77.0493 248.294 76.4564 257.614 78.5412C266.934 80.626 275.502 85.3039 282.334 92.0373L254.779 120.238C253.278 118.759 251.396 117.732 249.349 117.274C247.302 116.816 245.174 116.946 243.207 117.65C241.241 118.353 239.518 119.601 238.235 121.25C236.952 122.899 236.161 124.883 235.955 126.972C235.748 129.062 236.133 131.173 237.066 133.063C237.999 134.953 239.441 136.545 241.228 137.656C243.014 138.767 245.072 139.352 247.165 139.344C249.258 139.336 251.301 138.735 253.059 137.611L274.507 171.136Z" stroke="#6DA8D6" stroke-width="30" mask="url(#path-4-inside-3_415_30)"/>
<mask id="path-5-inside-4_415_30" fill="white">
<path d="M307.002 194.014C299.851 187.756 294.628 179.587 291.934 170.445C289.24 161.304 289.185 151.562 291.773 142.339C294.362 133.116 299.49 124.786 306.569 118.307C313.647 111.828 322.388 107.462 331.787 105.712C341.187 103.961 350.862 104.897 359.703 108.412C368.543 111.927 376.189 117.878 381.762 125.581C387.335 133.284 390.609 142.427 391.207 151.958C391.805 161.49 389.704 171.023 385.144 179.463L350.375 160.869C351.376 159.016 351.838 156.922 351.706 154.829C351.575 152.735 350.856 150.727 349.632 149.035C348.408 147.344 346.729 146.037 344.787 145.265C342.846 144.493 340.721 144.287 338.656 144.672C336.592 145.056 334.672 146.015 333.118 147.438C331.563 148.861 330.437 150.69 329.868 152.716C329.299 154.742 329.312 156.881 329.903 158.889C330.495 160.896 331.642 162.691 333.213 164.065L307.002 194.014Z"/>
</mask>
<path d="M307.002 194.014C299.851 187.756 294.628 179.587 291.934 170.445C289.24 161.304 289.185 151.562 291.773 142.339C294.362 133.116 299.49 124.786 306.569 118.307C313.647 111.828 322.388 107.462 331.787 105.712C341.187 103.961 350.862 104.897 359.703 108.412C368.543 111.927 376.189 117.878 381.762 125.581C387.335 133.284 390.609 142.427 391.207 151.958C391.805 161.49 389.704 171.023 385.144 179.463L350.375 160.869C351.376 159.016 351.838 156.922 351.706 154.829C351.575 152.735 350.856 150.727 349.632 149.035C348.408 147.344 346.729 146.037 344.787 145.265C342.846 144.493 340.721 144.287 338.656 144.672C336.592 145.056 334.672 146.015 333.118 147.438C331.563 148.861 330.437 150.69 329.868 152.716C329.299 154.742 329.312 156.881 329.903 158.889C330.495 160.896 331.642 162.691 333.213 164.065L307.002 194.014Z" stroke="#FFD153" stroke-width="30" mask="url(#path-5-inside-4_415_30)"/>
<mask id="path-6-inside-5_415_30" fill="white">
<path d="M380.876 96.9482C385.557 88.678 392.5 81.9096 400.906 77.4208C409.313 72.9321 418.842 70.9052 428.398 71.5731C437.954 72.2411 447.15 75.5767 454.928 81.1967C462.706 86.8167 468.751 94.4929 472.368 103.343C475.985 112.193 477.027 121.858 475.375 131.227C473.723 140.596 469.443 149.289 463.027 156.306C456.612 163.323 448.322 168.38 439.109 170.895C429.896 173.411 420.134 173.283 410.947 170.526L422.116 132.712C424.134 133.318 426.277 133.346 428.301 132.794C430.324 132.241 432.145 131.13 433.554 129.589C434.963 128.048 435.903 126.139 436.266 124.081C436.629 122.024 436.4 119.901 435.605 117.957C434.811 116.014 433.483 114.328 431.775 113.093C430.067 111.859 428.047 111.126 425.948 110.98C423.85 110.833 421.757 111.278 419.911 112.264C418.064 113.25 416.539 114.736 415.511 116.553L380.876 96.9482Z"/>
</mask>
<path d="M380.876 96.9482C385.557 88.678 392.5 81.9096 400.906 77.4208C409.313 72.9321 418.842 70.9052 428.398 71.5731C437.954 72.2411 447.15 75.5767 454.928 81.1967C462.706 86.8167 468.751 94.4929 472.368 103.343C475.985 112.193 477.027 121.858 475.375 131.227C473.723 140.596 469.443 149.289 463.027 156.306C456.612 163.323 448.322 168.38 439.109 170.895C429.896 173.411 420.134 173.283 410.947 170.526L422.116 132.712C424.134 133.318 426.277 133.346 428.301 132.794C430.324 132.241 432.145 131.13 433.554 129.589C434.963 128.048 435.903 126.139 436.266 124.081C436.629 122.024 436.4 119.901 435.605 117.957C434.811 116.014 433.483 114.328 431.775 113.093C430.067 111.859 428.047 111.126 425.948 110.98C423.85 110.833 421.757 111.278 419.911 112.264C418.064 113.25 416.539 114.736 415.511 116.553L380.876 96.9482Z" stroke="#6DA8D6" stroke-width="30" mask="url(#path-6-inside-5_415_30)"/>
<mask id="path-7-inside-6_415_30" fill="white">
<path d="M242.283 64.6828C240.913 55.2791 242.25 45.6756 246.14 36.9762C250.031 28.2768 256.318 20.8345 264.278 15.5047C272.238 10.175 281.548 7.17407 291.138 6.8469C300.729 6.51972 310.21 8.87957 318.493 13.6552C326.775 18.4309 333.523 25.4285 337.96 33.8438C342.397 42.2591 344.344 51.7505 343.576 61.2272C342.808 70.7039 339.358 79.7812 333.62 87.4159C327.883 95.0505 320.092 100.933 311.142 104.386L296.789 67.6627C298.755 66.9043 300.466 65.6124 301.726 63.9356C302.986 62.2589 303.744 60.2653 303.913 58.1839C304.081 56.1026 303.654 54.018 302.679 52.1698C301.705 50.3216 300.223 48.7847 298.404 47.7358C296.585 46.687 294.502 46.1687 292.396 46.2405C290.29 46.3124 288.245 46.9715 286.497 48.142C284.749 49.3126 283.368 50.9471 282.513 52.8577C281.659 54.7684 281.365 56.8775 281.666 58.9429L242.283 64.6828Z"/>
</mask>
<path d="M242.283 64.6828C240.913 55.2791 242.25 45.6756 246.14 36.9762C250.031 28.2768 256.318 20.8345 264.278 15.5047C272.238 10.175 281.548 7.17407 291.138 6.8469C300.729 6.51972 310.21 8.87957 318.493 13.6552C326.775 18.4309 333.523 25.4285 337.96 33.8438C342.397 42.2591 344.344 51.7505 343.576 61.2272C342.808 70.7039 339.358 79.7812 333.62 87.4159C327.883 95.0505 320.092 100.933 311.142 104.386L296.789 67.6627C298.755 66.9043 300.466 65.6124 301.726 63.9356C302.986 62.2589 303.744 60.2653 303.913 58.1839C304.081 56.1026 303.654 54.018 302.679 52.1698C301.705 50.3216 300.223 48.7847 298.404 47.7358C296.585 46.687 294.502 46.1687 292.396 46.2405C290.29 46.3124 288.245 46.9715 286.497 48.142C284.749 49.3126 283.368 50.9471 282.513 52.8577C281.659 54.7684 281.365 56.8775 281.666 58.9429L242.283 64.6828Z" stroke="#D74B56" stroke-width="30" mask="url(#path-7-inside-6_415_30)"/>
</svg>
