<svg width="37" height="37" viewBox="0 0 37 37" fill="none" xmlns="http://www.w3.org/2000/svg">
<g clip-path="url(#clip0_24_102)">
<path d="M18.5 0.457882C8.27991 0.457882 0 8.74473 0 18.9579C0 27.136 5.30025 34.0678 12.6459 36.5132C13.5744 36.6878 13.9097 36.1155 13.9097 35.6206C13.9097 35.1812 13.8993 34.0192 13.8923 32.4768C8.74356 33.5914 7.659 29.9897 7.659 29.9897C6.81609 27.8575 5.59972 27.2852 5.59972 27.2852C3.92547 26.1417 5.73269 26.1659 5.73269 26.1659C7.58731 26.292 8.56319 28.068 8.56319 28.068C10.2132 30.8985 12.8922 30.0799 13.9525 29.6035C14.1143 28.4114 14.5965 27.5916 15.1214 27.1349C11.0144 26.6712 6.69584 25.0814 6.69584 17.9924C6.69584 15.9678 7.41272 14.319 8.59787 13.024C8.39322 12.5604 7.76653 10.6757 8.76091 8.12729C8.76091 8.12729 10.3091 7.63357 13.8484 10.0247C15.3296 9.61423 16.9021 9.40957 18.4734 9.39916C20.0459 9.40957 21.6172 9.61538 23.0984 10.0247C26.6169 7.63357 28.1639 8.12729 28.1639 8.12729C29.1572 10.6757 28.5305 12.5592 28.3501 13.024C29.5237 14.319 30.2406 15.969 30.2406 17.9924C30.2406 25.0976 25.9162 26.6643 21.8046 27.1164C22.4474 27.6702 23.0498 28.8091 23.0498 30.5377C23.0498 33.0121 23.0267 35.0055 23.0267 35.6079C23.0267 36.0889 23.3505 36.667 24.3032 36.4809C31.7032 34.0608 36.9977 27.1233 36.9977 18.9567C36.9977 8.74357 28.7178 0.456726 18.4977 0.456726L18.5 0.457882Z" fill="#434343"/>
</g>
<defs>
<clipPath id="clip0_24_102">
<rect width="37" height="37" fill="white"/>
</clipPath>
</defs>
</svg>
