<svg width="31" height="46" viewBox="0 0 31 46" fill="none" xmlns="http://www.w3.org/2000/svg">
<path d="M0.543087 1.27163C-0.0084473 2.11253 -0.0452163 3.75776 0.0283216 17.1025L0.138628 32.0193L3.63168 32.2021C6.46289 32.3484 7.08796 32.4946 7.01442 32.9333C6.97765 33.2258 5.91135 35.8217 4.69798 38.6734C2.4183 43.9747 2.12415 45.5468 3.44783 45.5468C4.03614 45.5468 4.69798 44.3769 7.01442 38.9659L9.8824 32.3849L16.2434 32.2752C21.0969 32.2021 22.7515 32.3118 23.0457 32.6409C23.7075 33.4452 27.8256 42.622 27.6418 42.8779C27.458 43.2069 15.2507 43.2801 14.9565 42.951C14.8094 42.8413 15.1771 41.4155 15.7287 39.7702C16.8685 36.4432 16.8317 35.8582 15.5816 35.8582C14.883 35.8582 14.5888 36.2969 13.5225 39.2584C12.8607 41.0864 12.015 43.0241 11.6473 43.4994C11.1693 44.121 11.0958 44.5231 11.3899 45.035C11.7208 45.6931 12.2356 45.7296 21.1705 45.6565C29.1493 45.5468 30.6201 45.4737 30.9142 44.9984C31.2084 44.5597 30.7672 43.3166 29.2596 40.2455C28.1566 37.9422 24.9944 31.1419 22.2 25.1459C15.6551 11.1065 16.4273 11.3624 11.7944 22.0382L8.48518 29.8257H5.58043H2.71245L2.52861 15.2013C2.38153 2.14908 2.27123 0.576965 1.75646 0.467282C1.42554 0.39416 0.874007 0.759773 0.543087 1.27163ZM19.2217 24.0856C20.5454 26.9739 21.5749 29.4966 21.4278 29.6794C21.2072 30.0816 11.4635 30.1182 11.2429 29.716C11.0958 29.4601 14.9565 20.2102 15.7654 18.894C15.986 18.5284 16.317 18.3821 16.5008 18.5284C16.6479 18.7112 17.898 21.2339 19.2217 24.0856Z" fill="#ED5561"/>
</svg>
