<svg width="36" height="54" viewBox="0 0 36 54" fill="none" xmlns="http://www.w3.org/2000/svg">
<path d="M0.630682 0.971523C-0.00980979 1.97557 -0.0525092 3.94001 0.0328896 19.8739L0.160988 37.6848L4.21743 37.9031C7.50529 38.0777 8.23118 38.2523 8.14578 38.7762C8.10308 39.1254 6.8648 42.2249 5.45572 45.6299C2.80835 51.9598 2.46676 53.8369 4.00394 53.8369C4.68713 53.8369 5.45572 52.44 8.14578 45.9792L11.4763 38.1214L18.8633 37.9904C24.4997 37.9031 26.4211 38.0341 26.7627 38.427C27.5313 39.3873 32.3137 50.3446 32.1002 50.6502C31.8867 51.0431 17.7105 51.1304 17.3689 50.7375C17.1981 50.6065 17.6251 48.904 18.2655 46.9395C19.5892 42.967 19.5465 42.2685 18.0947 42.2685C17.2835 42.2685 16.9419 42.7924 15.7036 46.3284C14.935 48.5111 13.9529 50.8248 13.5259 51.3923C12.9708 52.1344 12.8854 52.6146 13.227 53.2258C13.6113 54.0116 14.2091 54.0552 24.5851 53.9679C33.8508 53.8369 35.5588 53.7496 35.9004 53.1821C36.242 52.6583 35.7296 51.174 33.9789 47.5071C32.6979 44.7568 29.0258 36.6371 25.7806 29.4778C18.1801 12.7145 19.0768 13.0201 13.6967 25.7672L9.85376 35.0656H6.4805H3.14995L2.93645 17.6038C2.76565 2.01923 2.63755 0.142087 2.03976 0.0111237C1.65547 -0.076185 1.01498 0.360362 0.630682 0.971523ZM22.322 28.2118C23.8592 31.6605 25.0548 34.6727 24.884 34.8909C24.6278 35.3711 13.3124 35.4148 13.0562 34.9346C12.8854 34.629 17.3689 23.5845 18.3082 22.0129C18.5644 21.5764 18.9487 21.4018 19.1622 21.5764C19.333 21.7946 20.7848 24.8068 22.322 28.2118Z" fill="white"/>
</svg>
